#N canvas -9 -9 1920 976 10;
#X obj 28 351 writesf~;
#X msg 97 283 start;
#X msg 137 307 stop;
#X text 38 231 record and save to file;
#N canvas 0 22 450 278 (subpatch) 0;
#X array sample 2.96582e+006 float 2;
#X coords 0 1 2.96582e+006 -1 200 140 1;
#X restore 342 46 graph;
#X obj 176 87 samplerate~;
#X obj 176 63 bng 15 250 50 0 empty empty get_sample_rate 20 7 0 10
-262144 -1 -1;
#X floatatom 176 109 5 0 0 0 - - -;
#X obj 177 127 s SR;
#X obj 176 35 loadbang;
#X msg 589 409 \; sample const 0;
#X text 586 390 clear array;
#X obj 23 434 soundfiler;
#X floatatom 23 456 0 0 0 0 - - -;
#X obj 744 483 line~;
#X msg 744 458 \$1 \, \$2 \$3;
#X floatatom 762 191 15 0 0 1 start - -;
#X floatatom 777 267 15 0 0 1 end - -;
#X floatatom 811 374 15 0 0 1 duration_in_ms - -;
#X obj 744 216 f;
#X obj 744 139 bng 15 250 50 0 empty empty play_once 20 7 0 10 -262144
-1 -1;
#X obj 33 183 dac~;
#X obj 744 432 pack f f f;
#X obj 23 479 s sampleSize;
#X obj 778 239 r sampleSize;
#X obj 744 508 tabread4~ sample;
#X obj 261 398 r sampleSize;
#X obj 261 506 /;
#X obj 279 436 r SR;
#X obj 261 537 s durationMS;
#X obj 808 342 r durationMS;
#X obj 460 398 r startPos;
#X obj 383 398 r endPos;
#X obj 383 454 -;
#X obj 383 476 abs;
#X obj 460 420 t b f;
#X obj 744 111 metro;
#X obj 741 56 tgl 15 0 empty empty play_loop 20 7 0 10 -262144 -1 -1
0 1;
#X obj 826 402 s loopDuration;
#X obj 776 86 r loopDuration;
#X text 740 33 Line method;
#X text 13 126 audio output;
#X text 257 379 calculate playback duration (ms);
#X obj 279 458 * 0.001;
#X text 587 452 Normalize;
#X msg 590 471 \; sample normalize 0.9;
#X text 20 388 load audio file to array;
#X text 262 215 ring modulator;
#X obj 276 323 throw~ out;
#X obj 276 296 *~;
#X obj 294 268 tgl 15 0 empty empty empty 17 7 0 10 -262144 -1 -1 0
1;
#N canvas -9 -9 1920 976 RM 0;
#X obj 222 165 osc~;
#X obj 222 193 *~;
#X obj 151 230 *~;
#X floatatom 222 141 5 0 0 0 - - -;
#X obj 279 25 vsl 15 128 0 127 0 0 empty empty empty 0 -9 0 10 -262144
-1 -1 0 1;
#X obj 279 164 / 127;
#X obj 151 259 clip~ -1 1;
#X obj 151 281 outlet~;
#X obj 151 140 r~ voi;
#X obj 335 82 loadbang;
#X msg 313 135 127;
#X msg 223 103 600;
#X connect 0 0 1 0;
#X connect 1 0 2 1;
#X connect 2 0 6 0;
#X connect 3 0 0 0;
#X connect 4 0 5 0;
#X connect 5 0 1 1;
#X connect 6 0 7 0;
#X connect 8 0 2 0;
#X connect 9 0 10 0;
#X connect 9 0 11 0;
#X connect 10 0 5 0;
#X connect 11 0 3 0;
#X restore 276 237 pd RM;
#X text 369 212 distortion;
#N canvas -9 -9 1920 976 dist 0;
#X obj 99 227 *~;
#X floatatom 117 187 5 0 0 0 - - -;
#X obj 99 258 clip~ -0.2 0.2;
#X floatatom 146 234 5 0 0 0 - - -;
#X floatatom 194 234 5 0 0 0 - - -;
#X obj 194 14 vsl 15 128 0 127 0 0 empty empty empty 0 -9 0 10 -262144
-1 -1 0 1;
#X obj 193 163 / 127;
#X obj 146 209 * -1;
#X obj 99 412 *~;
#X obj 267 273 expr 1 - $f1;
#X floatatom 267 295 5 0 0 0 - - -;
#X floatatom 267 340 5 0 0 0 - - -;
#X obj 99 302 hip~ 8000;
#X obj 99 434 clip~ -1 1;
#X obj 165 23 vsl 15 128 0 127 0 0 empty empty empty 0 -9 0 10 -262144
-1 -1 0 1;
#X obj 99 456 outlet~;
#X obj 267 314 expr ($f1*10)+0.5;
#X obj 99 69 r~ voi;
#X msg 361 141 5;
#X msg 385 170 25;
#X obj 438 138 loadbang;
#X connect 0 0 2 0;
#X connect 1 0 0 1;
#X connect 2 0 12 0;
#X connect 3 0 2 1;
#X connect 4 0 2 2;
#X connect 5 0 6 0;
#X connect 6 0 7 0;
#X connect 6 0 4 0;
#X connect 6 0 9 0;
#X connect 7 0 3 0;
#X connect 8 0 13 0;
#X connect 9 0 10 0;
#X connect 10 0 16 0;
#X connect 11 0 8 1;
#X connect 12 0 8 0;
#X connect 13 0 15 0;
#X connect 14 0 1 0;
#X connect 16 0 11 0;
#X connect 17 0 0 0;
#X connect 18 0 6 0;
#X connect 19 0 1 0;
#X connect 20 0 19 0;
#X connect 20 0 18 0;
#X restore 375 236 pd dist;
#X obj 375 321 throw~ out;
#X obj 375 294 *~;
#X obj 393 266 tgl 15 0 empty empty empty 17 7 0 10 -262144 -1 -1 0
1;
#X obj 476 322 throw~ out;
#X text 474 209 wah-wah;
#X obj 576 324 throw~ out;
#X obj 576 293 *~;
#X obj 594 265 tgl 15 0 empty empty empty 17 7 0 10 -262144 -1 -1 0
1;
#X text 579 210 phaser;
#N canvas -9 -9 1920 976 wah 0;
#X obj 239 357 vcf~;
#X floatatom 294 332 5 0 0 0 - - -;
#X obj 274 123 osc~;
#X floatatom 274 102 5 0 0 0 - - -;
#X obj 274 145 +~ 1;
#X obj 274 167 *~ 0.5;
#X obj 274 229 *~;
#X floatatom 292 197 5 0 0 0 - - -;
#X obj 274 288 +~;
#X floatatom 292 262 5 0 0 0 - - -;
#X obj 239 414 outlet~;
#X text 335 194 center freq;
#X text 336 259 range of change;
#X text 336 332 filter q;
#X obj 239 67 r~ voi;
#X obj 518 149 loadbang;
#X msg 590 176 10;
#X msg 555 177 100;
#X msg 520 178 2000;
#X msg 486 177 2;
#X connect 0 0 10 0;
#X connect 1 0 0 2;
#X connect 2 0 4 0;
#X connect 3 0 2 0;
#X connect 4 0 5 0;
#X connect 5 0 6 0;
#X connect 6 0 8 0;
#X connect 7 0 6 1;
#X connect 8 0 0 1;
#X connect 9 0 8 1;
#X connect 14 0 0 0;
#X connect 15 0 19 0;
#X connect 15 0 18 0;
#X connect 15 0 17 0;
#X connect 15 0 16 0;
#X connect 16 0 1 0;
#X connect 17 0 9 0;
#X connect 18 0 7 0;
#X connect 19 0 3 0;
#X restore 476 234 pd wah;
#X obj 476 289 *~;
#X obj 494 261 tgl 15 0 empty empty empty 17 7 0 10 -262144 -1 -1 0
1;
#N canvas -9 -9 1920 976 phaser 0;
#X obj 255 206 rpole~;
#X obj 255 175 rzero_rev~;
#X text 325 397 all pass filter;
#X obj 255 274 rpole~;
#X obj 255 244 rzero_rev~;
#X obj 255 342 rpole~;
#X obj 255 311 rzero_rev~;
#X obj 255 405 rpole~;
#X obj 255 374 rzero_rev~;
#X obj 397 68 osc~;
#X floatatom 397 47 5 0 0 0 - - -;
#X obj 397 90 +~ 1;
#X obj 397 112 *~ 0.5;
#X obj 223 487 +~;
#X obj 223 519 outlet~;
#X obj 226 116 r~ voi;
#X obj 317 4 loadbang;
#X msg 396 25 900;
#X connect 0 0 4 0;
#X connect 1 0 0 0;
#X connect 3 0 6 0;
#X connect 4 0 3 0;
#X connect 5 0 8 0;
#X connect 6 0 5 0;
#X connect 7 0 13 1;
#X connect 8 0 7 0;
#X connect 9 0 11 0;
#X connect 10 0 9 0;
#X connect 11 0 12 0;
#X connect 12 0 1 1;
#X connect 12 0 0 1;
#X connect 12 0 4 1;
#X connect 12 0 3 1;
#X connect 12 0 6 1;
#X connect 12 0 5 1;
#X connect 12 0 8 1;
#X connect 12 0 7 1;
#X connect 13 0 14 0;
#X connect 15 0 1 0;
#X connect 15 0 13 0;
#X connect 16 0 17 0;
#X connect 17 0 10 0;
#X restore 576 236 pd phaser;
#X obj 12 146 catch~ out;
#X obj 744 536 s~ voi;
#X msg 23 410 read -resize before/Pantam.wav sample;
#X msg 48 260 open after/Pantam.wav;
#X connect 1 0 0 0;
#X connect 2 0 0 0;
#X connect 5 0 7 0;
#X connect 6 0 5 0;
#X connect 7 0 8 0;
#X connect 9 0 6 0;
#X connect 12 0 13 0;
#X connect 13 0 23 0;
#X connect 14 0 25 0;
#X connect 15 0 14 0;
#X connect 16 0 19 1;
#X connect 17 0 22 1;
#X connect 18 0 22 2;
#X connect 18 0 38 0;
#X connect 19 0 22 0;
#X connect 20 0 19 0;
#X connect 22 0 15 0;
#X connect 24 0 17 0;
#X connect 25 0 68 0;
#X connect 26 0 27 0;
#X connect 27 0 29 0;
#X connect 28 0 43 0;
#X connect 30 0 18 0;
#X connect 31 0 35 0;
#X connect 32 0 33 0;
#X connect 33 0 34 0;
#X connect 34 0 27 0;
#X connect 35 0 33 0;
#X connect 35 1 33 1;
#X connect 36 0 20 0;
#X connect 37 0 36 0;
#X connect 39 0 36 1;
#X connect 43 0 27 1;
#X connect 49 0 48 0;
#X connect 50 0 49 1;
#X connect 51 0 49 0;
#X connect 53 0 55 0;
#X connect 55 0 54 0;
#X connect 56 0 55 1;
#X connect 60 0 59 0;
#X connect 61 0 60 1;
#X connect 63 0 64 0;
#X connect 64 0 57 0;
#X connect 65 0 64 1;
#X connect 66 0 60 0;
#X connect 67 0 21 0;
#X connect 67 0 21 1;
#X connect 67 0 0 0;
#X connect 69 0 12 0;
#X connect 70 0 0 0;
