#N canvas -9 -9 1920 976 10;
#X obj 29 35 adc~;
#X obj 28 351 writesf~;
#X msg 101 292 start;
#X msg 136 317 stop;
#X text 24 211 record and save to file;
#N canvas 0 22 450 278 (subpatch) 0;
#X array sample 308700 float 2;
#X coords 0 1 308700 -1 200 140 1;
#X restore 342 46 graph;
#X obj 239 265 tabwrite~ sample;
#X obj 239 235 bng 15 250 50 0 empty empty empty 17 7 0 10 -262144
-1 -1;
#X text 235 212 record to array;
#X obj 176 87 samplerate~;
#X obj 176 63 bng 15 250 50 0 empty empty get_sample_rate 20 7 0 10
-262144 -1 -1;
#X floatatom 176 109 5 0 0 0 - - -;
#X obj 173 138 s SR;
#X obj 176 35 loadbang;
#X obj 75 622 *;
#X obj 93 572 r SR;
#X floatatom 75 549 5 0 0 2 array_size_in_ms - -;
#X floatatom 75 644 15 0 0 0 - - -;
#X text 63 35 audio input;
#X msg 589 409 \; sample const 0;
#X text 586 390 clear array;
#X obj 23 434 soundfiler;
#X floatatom 23 456 0 0 0 0 - - -;
#X obj 847 650 line~;
#X msg 847 626 \$1 \, \$2 \$3;
#X floatatom 865 359 15 0 0 1 start - -;
#X floatatom 880 435 15 0 0 1 end - -;
#X floatatom 914 542 15 0 0 1 duration_in_ms - -;
#X obj 847 384 f;
#X obj 29 86 s~ audioIn;
#X obj 263 235 r~ audioIn;
#X obj 26 175 dac~;
#X obj 847 600 pack f f f;
#X obj 865 328 r startPos;
#X obj 881 409 r endPos;
#X obj 582 76 hsl 128 15 0 1 0 0 empty empty playback_start_position
-2 -8 0 10 -262144 -1 -1 0 1;
#X obj 575 154 s startPos;
#X obj 575 129 *;
#X obj 734 76 hsl 128 15 0 1 0 0 empty empty playback_end_position
-2 -8 0 10 -262144 -1 -1 0 1;
#X obj 731 129 *;
#X obj 731 155 s endPos;
#X obj 23 479 s sampleSize;
#X obj 593 108 r sampleSize;
#X obj 749 108 r sampleSize;
#X obj 847 676 tabread4~ sample;
#X obj 318 553 r sampleSize;
#X obj 318 661 /;
#X obj 336 591 r SR;
#X obj 345 789 s durationMS;
#X obj 916 503 r durationMS;
#X obj 517 553 r startPos;
#X obj 440 553 r endPos;
#X obj 440 609 -;
#X obj 440 631 abs;
#X obj 517 575 t b f;
#X obj 847 279 metro;
#X obj 929 570 s loopDuration;
#X obj 879 254 r loopDuration;
#X text 846 201 Line method;
#X text 24 123 audio output;
#X obj 150 551 loadbang;
#X text 314 534 calculate playback duration (ms);
#X obj 336 613 * 0.001;
#X obj 93 594 * 0.001;
#X text 587 452 Normalize;
#X msg 590 471 \; sample normalize 0.9;
#X text 351 252 save array to text file;
#X text 20 388 load audio file to array;
#X text 346 391 load text file to array;
#X obj 847 704 s~ audioOut;
#X obj 26 142 r~ audioOut;
#X msg 347 447 \; sample read sound2.txt;
#X msg 348 479 \; sample read sound3.txt;
#X msg 349 410 \; sample read sound1.txt;
#X obj 1001 210 r sampleSize;
#X msg 75 667 \; sample resize \$1 \; sampleSize \$1;
#X msg 953 325 \$1;
#X obj 1006 298 bng 15 250 50 0 empty empty empty 17 7 0 10 -262144
-1 -1;
#X floatatom 999 242 10 0 0 0 - - -;
#X floatatom 982 410 10 0 0 0 - - -;
#X obj 777 273 s reverse;
#X obj 1028 271 r reverse;
#X obj 762 198 tgl 15 0 empty empty empty 17 7 0 10 -262144 -1 -1 0
1;
#X obj 1055 324 r sampleSize;
#X msg 948 410 \$1;
#X obj 1044 298 bng 15 250 50 0 empty empty empty 17 7 0 10 -262144
-1 -1;
#X floatatom 1053 356 10 0 0 0 - - -;
#X floatatom 983 326 10 0 0 0 - - -;
#X obj 1058 384 r normal;
#X obj 690 276 s normal;
#X obj 679 199 tgl 15 0 empty empty empty 17 7 0 10 -262144 -1 -1 1
1;
#X obj 690 235 bng 15 250 50 0 empty empty empty 17 7 0 10 -262144
-1 -1;
#X obj 773 235 bng 15 250 50 0 empty empty empty 17 7 0 10 -262144
-1 -1;
#X text 680 179 normal loop;
#X text 687 221 normal once;
#X text 759 179 reverse loop;
#X text 768 220 reverse once;
#X obj 845 308 bng 15 250 50 0 empty empty empty 17 7 0 10 -262144
-1 -1;
#X obj 849 223 tgl 15 0 empty empty empty 17 7 0 10 -262144 -1 -1 1
1;
#X obj 361 736 bng 15 250 50 0 empty empty empty 17 7 0 10 -262144
-1 -1;
#X obj 330 735 bng 15 250 50 0 empty empty empty 17 7 0 10 -262144
-1 -1;
#X obj 387 739 bng 15 250 50 0 empty empty empty 17 7 0 10 -262144
-1 -1;
#X obj 396 684 tgl 15 0 empty empty empty 17 7 0 10 -262144 -1 -1 0
1;
#X obj 437 686 tgl 15 0 empty empty empty 17 7 0 10 -262144 -1 -1 0
1;
#X obj 352 684 tgl 15 0 empty empty empty 17 7 0 10 -262144 -1 -1 0
1;
#X obj 388 710 metro;
#X obj 430 710 metro;
#X obj 343 709 metro;
#X obj 603 209 tgl 15 0 empty empty empty 17 7 0 10 -262144 -1 -1 0
1;
#X obj 559 209 tgl 15 0 empty empty empty 17 7 0 10 -262144 -1 -1 0
1;
#X obj 498 210 tgl 15 0 empty empty empty 17 7 0 10 -262144 -1 -1 0
1;
#X obj 612 243 s 4:3;
#X obj 434 660 r 4:3;
#X obj 479 684 tgl 15 0 empty empty empty 17 7 0 10 -262144 -1 -1 0
1;
#X obj 477 713 metro;
#X obj 533 685 tgl 15 0 empty empty empty 17 7 0 10 -262144 -1 -1 0
1;
#X obj 526 711 metro;
#X obj 484 660 r /2;
#X obj 464 738 bng 15 250 50 0 empty empty empty 17 7 0 10 -262144
-1 -1;
#X obj 490 741 bng 15 250 50 0 empty empty empty 17 7 0 10 -262144
-1 -1;
#X obj 457 763 / 2;
#X obj 354 761 * 2;
#X obj 384 761 * 1.3333;
#X obj 596 287 tgl 15 0 empty empty empty 17 7 0 10 -262144 -1 -1 0
1;
#X obj 537 286 tgl 15 0 empty empty empty 17 7 0 10 -262144 -1 -1 0
1;
#X obj 499 244 s x1;
#X obj 390 658 r x2;
#X obj 560 242 s x2;
#X obj 538 319 s /2;
#X obj 598 320 s 3:2;
#X text 515 206 normal;
#X text 579 206 x2;
#X text 625 206 x4:3;
#X text 560 287 /2;
#X text 615 285 x3:2;
#X msg 150 573 7000;
#X text 547 183 speed;
#X obj 314 764 * 1.5;
#X obj 487 765 * 1;
#X obj 530 661 r x1;
#X obj 353 657 r 3:2;
#X obj 28 235 r~ audioOut;
#X msg 23 410 read -resize ../pd work 3/BitBox.wav sample;
#X msg 354 271 \; sample write sound.txt;
#X msg 354 304 \; sample write sound.txt;
#X msg 353 338 \; sample write sound.txt;
#X text 367 237 numbers 1 \, 2 \, 3 miss;
#X msg 54 263 open test.wav;
#X connect 0 0 29 0;
#X connect 0 1 29 0;
#X connect 2 0 1 0;
#X connect 3 0 1 0;
#X connect 7 0 6 0;
#X connect 9 0 11 0;
#X connect 10 0 9 0;
#X connect 11 0 12 0;
#X connect 13 0 10 0;
#X connect 14 0 17 0;
#X connect 15 0 63 0;
#X connect 16 0 14 0;
#X connect 17 0 75 0;
#X connect 21 0 22 0;
#X connect 22 0 41 0;
#X connect 23 0 44 0;
#X connect 24 0 23 0;
#X connect 25 0 28 1;
#X connect 26 0 32 1;
#X connect 27 0 56 0;
#X connect 27 0 32 2;
#X connect 28 0 32 0;
#X connect 30 0 6 0;
#X connect 32 0 24 0;
#X connect 33 0 25 0;
#X connect 34 0 26 0;
#X connect 35 0 37 0;
#X connect 37 0 36 0;
#X connect 38 0 39 0;
#X connect 39 0 40 0;
#X connect 42 0 37 1;
#X connect 43 0 39 1;
#X connect 44 0 69 0;
#X connect 45 0 46 0;
#X connect 46 0 120 0;
#X connect 46 0 121 0;
#X connect 46 0 122 0;
#X connect 46 0 137 0;
#X connect 46 0 138 0;
#X connect 47 0 62 0;
#X connect 49 0 27 0;
#X connect 50 0 54 0;
#X connect 51 0 52 0;
#X connect 52 0 53 0;
#X connect 53 0 46 0;
#X connect 54 0 52 0;
#X connect 54 1 52 1;
#X connect 55 0 97 0;
#X connect 57 0 55 1;
#X connect 60 0 135 0;
#X connect 62 0 46 1;
#X connect 63 0 14 1;
#X connect 70 0 31 0;
#X connect 70 0 31 1;
#X connect 74 0 78 0;
#X connect 76 0 25 0;
#X connect 77 0 78 0;
#X connect 77 0 79 0;
#X connect 77 0 97 0;
#X connect 78 0 76 0;
#X connect 79 0 26 0;
#X connect 81 0 77 0;
#X connect 82 0 80 0;
#X connect 82 0 98 0;
#X connect 83 0 86 0;
#X connect 84 0 26 0;
#X connect 85 0 86 0;
#X connect 85 0 87 0;
#X connect 85 0 97 0;
#X connect 86 0 84 0;
#X connect 87 0 25 0;
#X connect 88 0 85 0;
#X connect 90 0 89 0;
#X connect 90 0 98 0;
#X connect 91 0 89 0;
#X connect 92 0 80 0;
#X connect 97 0 28 0;
#X connect 98 0 55 0;
#X connect 99 0 121 0;
#X connect 100 0 137 0;
#X connect 101 0 122 0;
#X connect 102 0 105 0;
#X connect 103 0 106 0;
#X connect 104 0 107 0;
#X connect 105 0 99 0;
#X connect 106 0 101 0;
#X connect 107 0 100 0;
#X connect 108 0 111 0;
#X connect 109 0 127 0;
#X connect 110 0 125 0;
#X connect 112 0 103 0;
#X connect 113 0 114 0;
#X connect 114 0 118 0;
#X connect 115 0 116 0;
#X connect 116 0 119 0;
#X connect 117 0 113 0;
#X connect 118 0 120 0;
#X connect 119 0 138 0;
#X connect 120 0 48 0;
#X connect 121 0 48 0;
#X connect 122 0 48 0;
#X connect 123 0 129 0;
#X connect 124 0 128 0;
#X connect 126 0 102 0;
#X connect 135 0 16 0;
#X connect 137 0 48 0;
#X connect 138 0 48 0;
#X connect 139 0 115 0;
#X connect 140 0 104 0;
#X connect 141 0 1 0;
#X connect 142 0 21 0;
#X connect 147 0 1 0;
