#N canvas -18 2 1920 974 12;
#X obj 67 305 osc~;
#X obj 179 302 osc~;
#X obj 70 450 +~;
#X obj 65 574 +~;
#X obj 651 785 dac~;
#X obj 176 343 +~ 1;
#X obj 166 390 *~ 0.5;
#X floatatom 173 260 5 0 0 0 - - -;
#X obj 362 558 osc~;
#X obj 415 408 osc~;
#X obj 361 464 +~;
#X obj 406 451 *~;
#X obj 347 607 +~;
#X obj 368 330 sig~;
#X obj 415 365 +~;
#X obj 482 427 +~;
#X floatatom 133 31 5 0 0 0 - - -;
#X obj 93 97 int;
#X floatatom 52 118 5 0 0 0 - - -;
#X obj 131 64 + 0.5;
#X obj 1153 -71 expr 60000/$f1;
#X floatatom 1153 -49 5 0 0 0 - - -;
#X floatatom 1154 -94 5 0 0 0 - - -;
#X text 1197 -93 BPM;
#X obj 912 51 tgl 15 0 empty empty empty 17 7 0 10 -262144 -1 -1 1
1;
#X obj 1196 115 + 1;
#X floatatom 1194 160 5 0 0 0 - - -;
#X obj 1148 216 + 1;
#X obj 1129 414 noise~;
#X obj 1138 515 bp~ 100 10;
#X floatatom 1172 450 5 0 0 0 - - -;
#X floatatom 1222 450 5 0 0 0 - - -;
#X obj 1194 598 vline~;
#X obj 1145 624 *~;
#X obj 1144 687 *~;
#X floatatom 1163 654 5 0 0 0 - - -;
#X obj 860 318 noise~;
#X floatatom 902 343 5 0 0 0 - - -;
#X floatatom 953 354 5 0 0 0 - - -;
#X obj 953 558 vline~;
#X obj 876 528 *~;
#X obj 875 591 *~;
#X floatatom 894 558 5 0 0 0 - - -;
#X obj 879 461 hip~ 1500;
#X msg 980 503 1 10 \, 0 5 30;
#X obj 1140 559 lop~ 1500;
#X msg 1222 557 1 5 \, 0 10 50;
#X obj 103 197 t b f;
#X obj 100 261 mtof~;
#N canvas 830 90 450 250 (subpatch) 0;
#X array array2 40 float 3;
#A 0 67.7951 67.7459 62.9143 62.9143 62.9143 60.8607 60.8361 60.8571
63.9344 63.8852 63.8607 55.1557 55.1066 55.0574 64.4262 64.4508 64.3771
61.1557 61.1557 61.1803 68.0656 68.1393 66.8361 66.9098 64.6286 64.5984
68.0902 68.1148 68.1393 72.0492 72.0492 72.1721 73.2295 73.1557 70.2049
70.1803 70.1803 72.418 72.5164 72.4918;
#X coords 0 72 40 48 200 140 1 0 0;
#X restore 1591 368 graph;
#X floatatom 459 92 5 0 0 0 - - -;
#X floatatom 443 157 5 0 0 0 - - -;
#X obj 360 206 t b f;
#X floatatom 415 318 5 0 0 0 - - -;
#X floatatom 504 346 5 0 0 0 - - -;
#X floatatom 375 260 5 0 0 0 - - -;
#X obj 438 127 tabread array1;
#X obj 639 -76 expr 60000/$f1;
#X floatatom 639 -54 5 0 0 0 - - -;
#X floatatom 640 -99 5 0 0 0 - - -;
#X text 683 -98 BPM;
#X floatatom 371 14 5 0 0 0 - - -;
#X obj 301 77 + 1;
#X obj 1099 272 sel 1 2 3 4 5 6 7 8;
#X obj 171 158 loadbang;
#X obj 923 -98 loadbang;
#X obj 448 245 loadbang;
#X obj 510 260 loadbang;
#X text 115 -32 AM;
#X text 457 202 FM;
#X msg 510 286 0.5;
#X msg 454 284 1.6;
#X obj 1023 64 metro 80;
#N canvas -9 -9 1920 976 (subpatch) 0;
#X array array1 40 float 3;
#A 0 0 0 0 0 -74.2828 -74.1803 0 -65.9836 0 0 -55.5328 -55.5328 0 -69.7746
0 0 -56.1475 -56.0451 0 0 0 0 0 0 0 0 0 0 0 0 0 0 0 0 0 0 0 0 0 0;
#X coords 0 -100 40 0 200 140 1 19 0;
#X restore 1342 365 graph;
#X obj 706 65 metro 80;
#X obj 128 1 tabread array2;
#X obj 354 54 % 40;
#X obj 637 -20 * 0.3;
#X obj 869 419 bp~ 100 10;
#X obj 1217 185 % 8;
#X obj 538 23 bng 15 250 50 0 empty empty empty 17 7 0 10 -262144 -1
-1;
#X obj 1177 85 bng 15 250 50 0 empty empty empty 17 7 0 10 -262144
-1 -1;
#X obj 1254 115 f;
#X obj 501 65 f;
#X obj 1223 385 loadbang;
#X obj 952 252 loadbang;
#X msg 929 306 3000;
#X msg 968 307 100;
#X msg 1216 636 1000;
#X obj 1164 -9 * 0.3;
#X msg 1024 -67 65;
#X msg 900 -50 130;
#X msg 1190 418 500;
#X msg 1239 423 1500;
#X msg 578 480 stop;
#X obj 428 46 + 1;
#X obj 114 669 clip~ -0.99 0.99;
#X obj 380 671 clip~ -0.99 0.99;
#X obj 951 132 delay 1 55 sec;
#X msg 971 96 stop;
#X floatatom 486 -4 5 0 0 0 - - -;
#X obj 216 489 tgl 15 0 empty empty empty 17 7 0 10 -262144 -1 -1 1
1;
#X obj 121 607 *~;
#X obj 345 653 *~;
#X obj 205 625 vline~;
#X obj 202 450 delay 1 4950 msec;
#X obj 822 628 clip~ -0.05 0.05;
#X obj 1130 736 clip~ -0.05 0.05;
#X obj 279 612 vline~;
#X msg 488 -39 19;
#X msg 136 532 1 3000 1;
#X msg 261 563 0 3000 1;
#X obj 794 161 delay 1 44.5 sec;
#X msg 171 184 8;
#X connect 0 0 2 0;
#X connect 1 0 5 0;
#X connect 2 0 3 0;
#X connect 3 0 102 0;
#X connect 5 0 6 0;
#X connect 6 0 2 1;
#X connect 7 0 1 0;
#X connect 8 0 12 0;
#X connect 9 0 11 0;
#X connect 10 0 8 0;
#X connect 11 0 10 1;
#X connect 12 0 103 0;
#X connect 13 0 10 0;
#X connect 13 0 14 0;
#X connect 14 0 9 0;
#X connect 14 0 15 0;
#X connect 15 0 11 1;
#X connect 16 0 19 0;
#X connect 17 0 18 0;
#X connect 18 0 47 0;
#X connect 19 0 17 0;
#X connect 20 0 21 0;
#X connect 21 0 89 0;
#X connect 22 0 20 0;
#X connect 24 0 72 0;
#X connect 24 0 74 0;
#X connect 24 0 98 0;
#X connect 24 0 105 0;
#X connect 24 0 112 0;
#X connect 25 0 26 0;
#X connect 25 0 82 1;
#X connect 26 0 79 0;
#X connect 27 0 63 0;
#X connect 28 0 29 0;
#X connect 29 0 45 0;
#X connect 30 0 29 1;
#X connect 31 0 29 2;
#X connect 32 0 33 1;
#X connect 33 0 34 0;
#X connect 34 0 107 0;
#X connect 35 0 34 1;
#X connect 36 0 78 0;
#X connect 37 0 78 1;
#X connect 38 0 78 2;
#X connect 39 0 40 1;
#X connect 40 0 41 0;
#X connect 41 0 106 0;
#X connect 42 0 41 1;
#X connect 43 0 40 0;
#X connect 44 0 39 0;
#X connect 45 0 33 0;
#X connect 46 0 32 0;
#X connect 47 1 48 0;
#X connect 48 0 0 0;
#X connect 50 0 56 0;
#X connect 51 0 52 0;
#X connect 52 1 55 0;
#X connect 53 0 14 1;
#X connect 54 0 15 1;
#X connect 55 0 13 0;
#X connect 56 0 51 0;
#X connect 57 0 58 0;
#X connect 58 0 77 0;
#X connect 59 0 57 0;
#X connect 61 0 76 0;
#X connect 62 0 75 0;
#X connect 63 0 46 0;
#X connect 63 1 46 0;
#X connect 63 2 46 0;
#X connect 63 4 44 0;
#X connect 63 5 44 0;
#X connect 63 6 44 0;
#X connect 63 7 44 0;
#X connect 64 0 113 0;
#X connect 65 0 91 0;
#X connect 65 0 90 0;
#X connect 65 0 109 0;
#X connect 66 0 71 0;
#X connect 67 0 70 0;
#X connect 70 0 54 0;
#X connect 71 0 53 0;
#X connect 72 0 81 0;
#X connect 74 0 80 0;
#X connect 75 0 16 0;
#X connect 76 0 62 0;
#X connect 76 0 50 0;
#X connect 77 0 74 1;
#X connect 78 0 43 0;
#X connect 79 0 27 0;
#X connect 80 0 83 0;
#X connect 81 0 82 0;
#X connect 82 0 25 0;
#X connect 83 0 95 0;
#X connect 84 0 92 0;
#X connect 84 0 93 0;
#X connect 84 0 88 0;
#X connect 85 0 87 0;
#X connect 85 0 86 0;
#X connect 86 0 37 0;
#X connect 87 0 38 0;
#X connect 87 0 42 0;
#X connect 88 0 35 0;
#X connect 89 0 72 1;
#X connect 90 0 22 0;
#X connect 91 0 59 0;
#X connect 92 0 30 0;
#X connect 93 0 31 0;
#X connect 94 0 111 0;
#X connect 95 0 61 0;
#X connect 95 0 83 1;
#X connect 96 0 4 0;
#X connect 96 0 4 1;
#X connect 97 0 4 0;
#X connect 97 0 4 1;
#X connect 98 0 99 0;
#X connect 99 0 72 0;
#X connect 100 0 83 1;
#X connect 101 0 110 0;
#X connect 102 0 96 0;
#X connect 103 0 97 0;
#X connect 104 0 102 1;
#X connect 105 0 101 0;
#X connect 106 0 4 0;
#X connect 106 0 4 1;
#X connect 107 0 4 0;
#X connect 107 0 4 1;
#X connect 108 0 103 1;
#X connect 109 0 100 0;
#X connect 110 0 108 0;
#X connect 110 0 104 0;
#X connect 111 0 104 0;
#X connect 111 0 108 0;
#X connect 112 0 94 0;
#X connect 113 0 7 0;
